<mxfile host="65bd71144e">
    <diagram id="bXlalyqNDBhbUD2Ne3BI" name="Página-1">
        <mxGraphModel dx="816" dy="456" grid="1" gridSize="10" guides="1" tooltips="1" connect="1" arrows="1" fold="1" page="1" pageScale="1" pageWidth="827" pageHeight="1169" math="0" shadow="0">
            <root>
                <mxCell id="0"/>
                <mxCell id="1" parent="0"/>
                <mxCell id="2" value="* Registrar un nuevo usuario&lt;br&gt;* Guardar datos clave como el grupo sanguineo, el factor RH (positivo/ negativo), el nombre del donante, dirección, número de teléfono&lt;br&gt;*Los datos se recuperan de la BD&lt;br&gt;* Encontrar un emparejamiento adecuado según el grupo sanguíneo y el factor RH&lt;br&gt;* Mostrar la cantidad de los diferentes tipos de sangre actualmente guardados&lt;br&gt;* La base de datos debe contener al menos 100 personas&lt;br&gt;* La aplicación puede dar de baja a un usuario, especificar el motivo (Dar de baja lo desaparece de las listas, pero sigue en el sistema)&lt;br&gt;* Modificar el usuario (Tipo estatus)" style="rounded=0;whiteSpace=wrap;html=1;" parent="1" vertex="1">
                    <mxGeometry x="330" y="200" width="120" height="780" as="geometry"/>
                </mxCell>
                <mxCell id="46" value="Registrar usuario" style="html=1;" parent="1" vertex="1">
                    <mxGeometry x="70" y="120" width="110" height="50" as="geometry"/>
                </mxCell>
                <mxCell id="49" value="Recuperar datos" style="html=1;" parent="1" vertex="1">
                    <mxGeometry x="200" y="120" width="110" height="50" as="geometry"/>
                </mxCell>
                <mxCell id="50" value="Match de sangre" style="html=1;" parent="1" vertex="1">
                    <mxGeometry x="330" y="120" width="110" height="50" as="geometry"/>
                </mxCell>
                <mxCell id="51" value="Dar de baja&amp;nbsp;&lt;br&gt;usuario" style="html=1;" parent="1" vertex="1">
                    <mxGeometry x="460" y="120" width="110" height="50" as="geometry"/>
                </mxCell>
                <mxCell id="52" value="Modificar usuario" style="html=1;" parent="1" vertex="1">
                    <mxGeometry x="590" y="120" width="110" height="50" as="geometry"/>
                </mxCell>
                <mxCell id="54" style="edgeStyle=none;html=1;entryX=0.5;entryY=0;entryDx=0;entryDy=0;" parent="1" source="53" target="46" edge="1">
                    <mxGeometry relative="1" as="geometry">
                        <Array as="points">
                            <mxPoint x="130" y="30"/>
                        </Array>
                    </mxGeometry>
                </mxCell>
                <mxCell id="55" style="edgeStyle=none;html=1;entryX=0.5;entryY=0;entryDx=0;entryDy=0;" parent="1" source="53" target="49" edge="1">
                    <mxGeometry relative="1" as="geometry">
                        <Array as="points">
                            <mxPoint x="260" y="30"/>
                        </Array>
                    </mxGeometry>
                </mxCell>
                <mxCell id="56" style="edgeStyle=none;html=1;" parent="1" source="53" target="50" edge="1">
                    <mxGeometry relative="1" as="geometry"/>
                </mxCell>
                <mxCell id="57" style="edgeStyle=none;html=1;entryX=0.5;entryY=0;entryDx=0;entryDy=0;" parent="1" source="53" target="51" edge="1">
                    <mxGeometry relative="1" as="geometry">
                        <Array as="points">
                            <mxPoint x="515" y="30"/>
                        </Array>
                    </mxGeometry>
                </mxCell>
                <mxCell id="58" style="edgeStyle=none;html=1;entryX=0.5;entryY=0;entryDx=0;entryDy=0;" parent="1" source="53" target="52" edge="1">
                    <mxGeometry relative="1" as="geometry">
                        <Array as="points">
                            <mxPoint x="650" y="30"/>
                        </Array>
                    </mxGeometry>
                </mxCell>
                <mxCell id="53" value="Menu" style="html=1;" parent="1" vertex="1">
                    <mxGeometry x="330" width="110" height="50" as="geometry"/>
                </mxCell>
                <mxCell id="59" value="Datos:&lt;br&gt;- Grupo sanguínero&lt;br&gt;- Factor RH&lt;br&gt;- Nombre&lt;br&gt;- Dirección&amp;nbsp;&lt;br&gt;- # Telefono&lt;br&gt;- Estatus" style="html=1;" parent="1" vertex="1">
                    <mxGeometry x="60" y="210" width="110" height="120" as="geometry"/>
                </mxCell>
                <mxCell id="61" style="edgeStyle=none;html=1;entryX=1;entryY=0.38;entryDx=0;entryDy=0;entryPerimeter=0;" parent="1" source="60" target="59" edge="1">
                    <mxGeometry relative="1" as="geometry"/>
                </mxCell>
                <mxCell id="60" value="Estos son los que se pueden recuperar" style="text;html=1;strokeColor=none;fillColor=none;align=center;verticalAlign=middle;whiteSpace=wrap;rounded=0;" parent="1" vertex="1">
                    <mxGeometry x="200" y="210" width="60" height="60" as="geometry"/>
                </mxCell>
            </root>
        </mxGraphModel>
    </diagram>
</mxfile>